<svg xmlns="http://www.w3.org/2000/svg" viewBox="0 0 370.24 56.77"><defs><style>.cls-1{fill:none;stroke:#000;stroke-miterlimit:10;}</style></defs><g id="Layer_2" data-name="Layer 2"><g id="Layer_1-2" data-name="Layer 1"><path class="cls-1" d="M14.93,5.28h7.34V36.39q0,7.34-1.8,10.94a11.73,11.73,0,0,1-11.3,6.91A15.21,15.21,0,0,1,.67,51.8l3.6-6.2a7.42,7.42,0,0,0,5,1.73,4.78,4.78,0,0,0,4.82-3.24q.8-2,.8-7.7Z"/><path class="cls-1" d="M55.25,5.28V12.2H36.09V24.36H54.67v6.92H36.09V46.4H55.25v6.91H28.75v-48Z"/><path class="cls-1" d="M65.76,53.31H58.27L68.35,1.68,85.05,39,101.9,1.68,111,53.31h-7.48l-4.9-28.95-14,31.18L70.8,24.29Z"/><path class="cls-1" d="M116,5.28h7.28a32.12,32.12,0,0,1,7.92.8A12.09,12.09,0,0,1,136.53,9a12.44,12.44,0,0,1,3.82,9.5,10.54,10.54,0,0,1-1.44,5.69,8,8,0,0,1-3.6,3.31A12.74,12.74,0,0,1,141.5,31q3.17,3.32,3.17,9a12.16,12.16,0,0,1-3.17,8.64Q137,53.31,128,53.31H116Zm7.35,6.92V26h2.23c2.69,0,4.68-.63,6-1.87s1.87-3,1.87-5.48a6.08,6.08,0,0,0-1.73-4.6q-1.87-1.8-5.83-1.8Zm0,19.8V46.4h4.46c3.31,0,5.74-.63,7.27-1.88a6.35,6.35,0,0,0,2.38-5.32,6.82,6.82,0,0,0-1.94-5Q133.29,32,128,32Z"/><path class="cls-1" d="M151.51,11.55a25,25,0,0,1,42.84,17.78,25,25,0,1,1-50,0A24.14,24.14,0,0,1,151.51,11.55Zm5.18,30.85a18.35,18.35,0,0,0,25.35,0,17.9,17.9,0,0,0,5-13.07,17.92,17.92,0,0,0-5-13.07,18.38,18.38,0,0,0-25.35,0,17.92,17.92,0,0,0-5,13.07A17.9,17.9,0,0,0,156.69,42.4Z"/><path class="cls-1" d="M225.16,12.48l-5.9,3.46a8.32,8.32,0,0,0-2.16-3,8,8,0,0,0-5.18-1.73,7.07,7.07,0,0,0-5,1.65A5.44,5.44,0,0,0,205.15,17c0,2.49,1.73,4.44,5.18,5.83l4.83,1.94q11.29,4.62,11.3,14.12A14.89,14.89,0,0,1,222.1,50,15.17,15.17,0,0,1,211,54.24a14.42,14.42,0,0,1-11.3-4.82,15.92,15.92,0,0,1-4-9.36l7.28-1.58a9.9,9.9,0,0,0,2,6.12,7.61,7.61,0,0,0,6.27,2.88,7.72,7.72,0,0,0,7.92-8.07,6.69,6.69,0,0,0-1.91-5.11,16.56,16.56,0,0,0-5-3.1l-4.6-1.94q-9.79-4.11-9.8-12.17a12.15,12.15,0,0,1,3.78-8.93q3.78-3.74,10.26-3.74a14.38,14.38,0,0,1,9.65,3.24A16.61,16.61,0,0,1,225.16,12.48Z"/><path class="cls-1" d="M230.64,5.28h10.58q6.63,0,10.51,2.6A12.85,12.85,0,0,1,256.16,13a14.74,14.74,0,0,1,1.55,6.59A13.21,13.21,0,0,1,253,30.05q-4.4,3.75-11.74,3.75H238V53.31h-7.34ZM238,12.05V27h3.31c3.07,0,5.4-.69,7-2.05a6.93,6.93,0,0,0,2.37-5.51,8.21,8.21,0,0,0-.32-2.31,8.3,8.3,0,0,0-1.23-2.34,6,6,0,0,0-2.91-2,14.12,14.12,0,0,0-5-.76Z"/><path class="cls-1" d="M265,11.55a25,25,0,0,1,42.84,17.78,25,25,0,1,1-50,0A24.14,24.14,0,0,1,265,11.55Zm5.18,30.85a18.35,18.35,0,0,0,25.35,0,17.9,17.9,0,0,0,5-13.07,17.92,17.92,0,0,0-5-13.07,18.38,18.38,0,0,0-25.35,0,17.91,17.91,0,0,0-5,13.07Q265.2,37.32,270.16,42.4Z"/><path class="cls-1" d="M312,5.28h8.57q8.51,0,12.68,2.81c3.79,2.55,5.68,6.31,5.68,11.31a13.21,13.21,0,0,1-10.65,13.39l15,20.52h-8.85L320.64,33.65h-1.3V53.31H312Zm7.35,6.77V27.32h2.3c.63,0,1.25,0,1.88-.08a14.09,14.09,0,0,0,2.55-.5,9.87,9.87,0,0,0,2.81-1.19A6.44,6.44,0,0,0,331,23.21a7.42,7.42,0,0,0,.9-3.74q0-7.42-10-7.42Z"/><path class="cls-1" d="M369.74,12.2h-11V53.31h-7.34V12.2h-11V5.28h29.38Z"/></g></g></svg>