<?xml version="1.0" encoding="UTF-8" standalone="no"?>
<!DOCTYPE svg PUBLIC "-//W3C//DTD SVG 1.1//EN" "http://www.w3.org/Graphics/SVG/1.1/DTD/svg11.dtd">
<svg width="100%" height="100%" viewBox="0 0 37 64" version="1.1" xmlns="http://www.w3.org/2000/svg" xmlns:xlink="http://www.w3.org/1999/xlink" xml:space="preserve" xmlns:serif="http://www.serif.com/" style="fill-rule:evenodd;clip-rule:evenodd;stroke-linejoin:round;stroke-miterlimit:2;">
    <g transform="matrix(1,0,0,1,-989.486,-388.059)">
        <g>
            <g transform="matrix(72,0,0,72,986.03,435.435)">
                <path d="M0.062,-0.421L0.16,-0.421L0.16,0.229L0.062,0.229L0.062,-0.421ZM0.066,-0.55C0.054,-0.562 0.048,-0.577 0.048,-0.595C0.048,-0.613 0.054,-0.628 0.066,-0.64C0.078,-0.652 0.093,-0.658 0.111,-0.658C0.129,-0.658 0.144,-0.652 0.156,-0.64C0.168,-0.628 0.174,-0.613 0.174,-0.595C0.174,-0.577 0.168,-0.562 0.156,-0.55C0.144,-0.538 0.129,-0.532 0.111,-0.532C0.093,-0.532 0.078,-0.538 0.066,-0.55Z" style="fill:rgb(18,18,18);fill-rule:nonzero;"/>
            </g>
            <g transform="matrix(72,0,0,72,1002.01,435.435)">
                <path d="M0.319,-0.358L0.246,-0.31C0.231,-0.334 0.211,-0.346 0.186,-0.346C0.173,-0.346 0.163,-0.342 0.156,-0.335C0.15,-0.329 0.147,-0.322 0.147,-0.313C0.147,-0.303 0.152,-0.295 0.161,-0.289C0.163,-0.288 0.165,-0.286 0.167,-0.285L0.244,-0.247C0.272,-0.233 0.292,-0.22 0.303,-0.208C0.324,-0.187 0.334,-0.161 0.334,-0.13C0.334,-0.093 0.322,-0.061 0.297,-0.034C0.268,-0.003 0.229,0.013 0.179,0.013C0.142,0.013 0.111,0.004 0.088,-0.014C0.063,-0.033 0.045,-0.058 0.034,-0.091L0.114,-0.129C0.121,-0.11 0.128,-0.096 0.137,-0.089C0.148,-0.078 0.162,-0.073 0.18,-0.073C0.197,-0.073 0.211,-0.078 0.22,-0.087C0.229,-0.096 0.234,-0.107 0.234,-0.12C0.234,-0.132 0.23,-0.143 0.221,-0.152C0.212,-0.161 0.198,-0.17 0.179,-0.178L0.143,-0.195C0.115,-0.208 0.096,-0.22 0.085,-0.231C0.065,-0.25 0.055,-0.274 0.055,-0.302C0.055,-0.337 0.067,-0.367 0.09,-0.392C0.115,-0.419 0.15,-0.432 0.193,-0.432C0.223,-0.432 0.249,-0.425 0.271,-0.41C0.291,-0.397 0.307,-0.38 0.319,-0.358Z" style="fill:rgb(17,17,17);fill-rule:nonzero;"/>
            </g>
        </g>
    </g>
</svg>
