<?xml version="1.0" encoding="UTF-8" standalone="no"?>
<!DOCTYPE svg PUBLIC "-//W3C//DTD SVG 1.1//EN" "http://www.w3.org/Graphics/SVG/1.1/DTD/svg11.dtd">
<svg width="100%" height="100%" viewBox="0 0 38 65" version="1.1" xmlns="http://www.w3.org/2000/svg" xmlns:xlink="http://www.w3.org/1999/xlink" xml:space="preserve" xmlns:serif="http://www.serif.com/" style="fill-rule:evenodd;clip-rule:evenodd;stroke-linejoin:round;stroke-miterlimit:2;">
            <path d="M990.494,405.123L997.55,405.123L997.55,451.923L990.494,451.923L990.494,405.123ZM990.782,395.835C989.918,394.971 989.486,393.891 989.486,392.595C989.486,391.299 989.918,390.219 990.782,389.355C991.646,388.491 992.726,388.059 994.022,388.059C995.318,388.059 996.398,388.491 997.262,389.355C998.126,390.219 998.558,391.299 998.558,392.595C998.558,393.891 998.126,394.971 997.262,395.835C996.398,396.699 995.318,397.131 994.022,397.131C992.726,397.131 991.646,396.699 990.782,395.835Z" style="fill:none;fill-rule:nonzero;stroke:black;stroke-width:1px;"/>
            <path d="M1024.98,409.659L1019.73,413.115C1018.67,411.387 1017.23,410.523 1015.41,410.523C1014.49,410.523 1013.77,410.787 1013.25,411.315C1012.81,411.747 1012.6,412.275 1012.6,412.899C1012.6,413.619 1012.93,414.195 1013.61,414.627C1013.75,414.723 1013.89,414.807 1014.04,414.879L1019.58,417.651C1021.6,418.659 1023.01,419.595 1023.83,420.459C1025.32,421.947 1026.06,423.819 1026.06,426.075C1026.06,428.763 1025.17,431.067 1023.4,432.987C1021.33,435.243 1018.5,436.371 1014.9,436.371C1012.21,436.371 1010.03,435.723 1008.35,434.427C1006.53,433.083 1005.23,431.235 1004.46,428.883L1010.22,426.147C1010.7,427.539 1011.25,428.499 1011.88,429.027C1012.65,429.795 1013.68,430.179 1014.97,430.179C1016.22,430.179 1017.18,429.843 1017.85,429.171C1018.53,428.499 1018.86,427.707 1018.86,426.795C1018.86,425.931 1018.55,425.163 1017.93,424.491C1017.25,423.819 1016.25,423.195 1014.9,422.619L1012.31,421.395C1010.29,420.435 1008.9,419.571 1008.13,418.803C1006.69,417.411 1005.97,415.707 1005.97,413.691C1005.97,411.147 1006.81,408.987 1008.49,407.211C1010.32,405.291 1012.79,404.331 1015.91,404.331C1018.07,404.331 1019.94,404.859 1021.53,405.915C1022.97,406.827 1024.12,408.075 1024.98,409.659Z" style="fill:none;fill-rule:nonzero;stroke:black;stroke-width:1px;"/>
</svg>